<svg width="24" height="24" viewBox="0 0 24 24" fill="none" xmlns="http://www.w3.org/2000/svg">
<path d="M21 12V16.5H3V4.5H8.25V3H3C2.60218 3 2.22064 3.15804 1.93934 3.43934C1.65804 3.72064 1.5 4.10218 1.5 4.5V16.5C1.5 16.8978 1.65804 17.2794 1.93934 17.5607C2.22064 17.842 2.60218 18 3 18H9V21H6V22.5H18V21H15V18H21C21.3978 18 21.7794 17.842 22.0607 17.5607C22.342 17.2794 22.5 16.8978 22.5 16.5V12H21ZM13.5 21H10.5V18H13.5V21Z" fill="white"/>
<path d="M13.5 13.5001H13.4925C13.3309 13.4984 13.1742 13.4445 13.0456 13.3466C12.9171 13.2486 12.8237 13.1117 12.7792 12.9563L11.4345 8.25008H8.25V6.75008H12C12.163 6.74999 12.3216 6.80302 12.4518 6.90113C12.582 6.99924 12.6767 7.1371 12.7215 7.29383L13.527 10.1138L15.7838 2.77883C15.8324 2.62662 15.9278 2.49361 16.0564 2.3987C16.185 2.30378 16.3402 2.25178 16.5 2.25008C16.658 2.24771 16.8126 2.29633 16.9408 2.38874C17.069 2.48115 17.164 2.61242 17.2118 2.76308L18.54 6.75008H22.5V8.25008H18C17.8425 8.25012 17.689 8.20059 17.5613 8.10851C17.4335 8.01644 17.338 7.88649 17.2882 7.73708L16.5285 5.45708L14.217 12.9706C14.1698 13.1239 14.0747 13.2581 13.9457 13.3534C13.8166 13.4487 13.6604 13.5001 13.5 13.5001Z" fill="white"/>
</svg>
