<svg width="28" height="28" viewBox="0 0 28 28" fill="none" xmlns="http://www.w3.org/2000/svg">
<path d="M22.75 17.0625C22.75 16.3663 22.4734 15.6986 21.9812 15.2063C21.4889 14.7141 20.8212 14.4375 20.125 14.4375H7.875C7.17881 14.4375 6.51113 14.7141 6.01884 15.2063C5.52656 15.6986 5.25 16.3663 5.25 17.0625V17.9375C5.25 21.3867 8.505 24.9375 14 24.9375C19.495 24.9375 22.75 21.3867 22.75 17.9375V17.0625ZM7 17.0625C7 16.8304 7.09219 16.6079 7.25628 16.4438C7.42038 16.2797 7.64294 16.1875 7.875 16.1875H20.125C20.3571 16.1875 20.5796 16.2797 20.7437 16.4438C20.9078 16.6079 21 16.8304 21 17.0625V17.9375C21 20.454 18.494 23.1875 14 23.1875C9.506 23.1875 7 20.454 7 17.9375V17.0625Z" fill="white"/>
<path d="M18.8125 7.87506C18.8126 6.83757 18.4773 5.82783 17.8568 4.99637C17.2363 4.1649 16.3637 3.55623 15.369 3.26109C14.3744 2.96595 13.311 3.00014 12.3374 3.35856C11.3638 3.71699 10.5321 4.38045 9.96625 5.25006H7C6.76794 5.25006 6.54538 5.34225 6.38128 5.50634C6.21719 5.67044 6.125 5.893 6.125 6.12506V9.62506C6.125 9.65306 6.125 9.67931 6.1285 9.70556H6.125V11.3751C6.125 12.0713 6.40156 12.7389 6.89384 13.2312C7.38613 13.7235 8.05381 14.0001 8.75 14.0001H9.42725C9.6076 13.9999 9.78501 13.9544 9.94308 13.8675C10.1011 13.7807 10.2348 13.6554 10.3316 13.5033C10.4284 13.3511 10.4853 13.177 10.497 12.997C10.5088 12.8171 10.4749 12.637 10.3986 12.4736C10.3224 12.3102 10.2061 12.1686 10.0607 12.062C9.91518 11.9554 9.74518 11.8872 9.56637 11.8637C9.38756 11.8402 9.20571 11.8622 9.03763 11.9276C8.86955 11.9929 8.72067 12.0996 8.60475 12.2378C8.40076 12.2035 8.21553 12.098 8.08193 11.94C7.94834 11.7821 7.87503 11.5819 7.875 11.3751V10.5001H8.3125C8.83225 10.5001 9.317 10.3478 9.72475 10.0871C10.2201 11.0454 11.023 11.8096 12.0047 12.2568C12.9864 12.7041 14.09 12.8086 15.1382 12.5534C16.1863 12.2983 17.1184 11.6984 17.7847 10.85C18.4511 10.0015 18.813 8.95386 18.8125 7.87506ZM10.9375 7.87506C10.9375 7.06284 11.2602 6.28388 11.8345 5.70955C12.4088 5.13522 13.1878 4.81256 14 4.81256C14.8122 4.81256 15.5912 5.13522 16.1655 5.70955C16.7398 6.28388 17.0625 7.06284 17.0625 7.87506C17.0625 8.68729 16.7398 9.46625 16.1655 10.0406C15.5912 10.6149 14.8122 10.9376 14 10.9376C13.1878 10.9376 12.4088 10.6149 11.8345 10.0406C11.2602 9.46625 10.9375 8.68729 10.9375 7.87506ZM9.1875 7.87506C9.1875 8.10713 9.09531 8.32969 8.93122 8.49378C8.76712 8.65787 8.54456 8.75006 8.3125 8.75006H7.875V7.00006H9.1875V7.87506Z" fill="white"/>
</svg>
