<svg width="29" height="29" viewBox="0 0 29 29" fill="none" xmlns="http://www.w3.org/2000/svg">
<path d="M14.5001 9.35181C13.4818 9.35181 12.4865 9.65375 11.6398 10.2194C10.7932 10.7851 10.1334 11.5892 9.7437 12.5299C9.35404 13.4706 9.25208 14.5058 9.45073 15.5044C9.64938 16.5031 10.1397 17.4204 10.8597 18.1404C11.5797 18.8604 12.497 19.3507 13.4957 19.5494C14.4944 19.748 15.5295 19.6461 16.4702 19.2564C17.4109 18.8668 18.215 18.2069 18.7807 17.3603C19.3464 16.5137 19.6483 15.5183 19.6483 14.5001C19.6483 13.1347 19.1059 11.8252 18.1404 10.8597C17.1749 9.89421 15.8655 9.35181 14.5001 9.35181ZM14.5001 18.1425C13.7797 18.1425 13.0754 17.9289 12.4764 17.5286C11.8774 17.1284 11.4106 16.5595 11.1349 15.894C10.8592 15.2284 10.7871 14.496 10.9276 13.7895C11.0682 13.0829 11.4151 12.4339 11.9245 11.9245C12.4339 11.4151 13.0829 11.0682 13.7895 10.9276C14.496 10.7871 15.2284 10.8592 15.894 11.1349C16.5595 11.4106 17.1284 11.8774 17.5286 12.4764C17.9289 13.0754 18.1425 13.7797 18.1425 14.5001C18.1425 15.4661 17.7588 16.3926 17.0757 17.0757C16.3926 17.7587 15.4661 18.1425 14.5001 18.1425Z" fill="white" stroke="white" stroke-width="0.25"/>
<path d="M27.3721 13.7471H24.6819C24.4979 11.3088 23.4461 9.01562 21.7152 7.28476C19.9844 5.55391 17.6912 4.50212 15.2529 4.31807V1.62791C15.2529 1.42822 15.1736 1.23672 15.0324 1.09552C14.8912 0.954324 14.6997 0.875 14.5 0.875C14.3003 0.875 14.1088 0.954324 13.9676 1.09552C13.8264 1.23672 13.7471 1.42822 13.7471 1.62791V4.31807C11.3088 4.50212 9.01562 5.55391 7.28476 7.28476C5.55391 9.01562 4.50212 11.3088 4.31807 13.7471H1.62791C1.42822 13.7471 1.23672 13.8264 1.09552 13.9676C0.954324 14.1088 0.875 14.3003 0.875 14.5C0.875 14.6997 0.954324 14.8912 1.09552 15.0324C1.23672 15.1736 1.42822 15.2529 1.62791 15.2529H4.31807C4.50212 17.6912 5.55391 19.9844 7.28476 21.7152C9.01562 23.4461 11.3088 24.4979 13.7471 24.6819V27.3721C13.7471 27.5718 13.8264 27.7633 13.9676 27.9045C14.1088 28.0457 14.3003 28.125 14.5 28.125C14.6997 28.125 14.8912 28.0457 15.0324 27.9045C15.1736 27.7633 15.2529 27.5718 15.2529 27.3721V24.6819C17.6912 24.4979 19.9844 23.4461 21.7152 21.7152C23.4461 19.9844 24.4979 17.6912 24.6819 15.2529H27.3721C27.5718 15.2529 27.7633 15.1736 27.9045 15.0324C28.0457 14.8912 28.125 14.6997 28.125 14.5C28.125 14.3003 28.0457 14.1088 27.9045 13.9676C27.7633 13.8264 27.5718 13.7471 27.3721 13.7471ZM14.4999 23.2034C12.7785 23.2033 11.0959 22.6929 9.66467 21.7366C8.2334 20.7803 7.11787 19.421 6.45913 17.8306C5.8004 16.2403 5.62804 14.4903 5.96386 12.8021C6.29968 11.1138 7.1286 9.56297 8.34579 8.34579C9.56297 7.1286 11.1138 6.29968 12.8021 5.96386C14.4903 5.62804 16.2403 5.8004 17.8306 6.45913C19.421 7.11787 20.7803 8.2334 21.7366 9.66467C22.6929 11.0959 23.2033 12.7785 23.2034 14.4999C23.2009 16.8074 22.2831 19.0198 20.6515 20.6515C19.0198 22.2831 16.8074 23.2009 14.4999 23.2034Z" fill="white" stroke="white" stroke-width="0.25"/>
</svg>
