<svg width="19" height="26" viewBox="0 0 19 26" fill="none" xmlns="http://www.w3.org/2000/svg">
<path d="M9.24635 0C4.14064 0 0 4.14062 0 9.24633C0 14.3521 9.52664 26 9.52664 26C9.52664 26 18.4927 14.3521 18.4927 9.24633C18.4927 4.14062 14.3521 0 9.24635 0ZM9.24635 1.87601C13.3169 1.87601 16.6167 5.17578 16.6167 9.24633C16.6167 13.3169 13.3169 16.6167 9.24635 16.6167C5.17579 16.6167 1.87603 13.3169 1.87603 9.24633C1.87603 5.17578 5.17579 1.87601 9.24635 1.87601Z" fill="white"/>
<path fill-rule="evenodd" clip-rule="evenodd" d="M9.19532 7.59337C9.11888 7.59337 9.05518 7.66026 9.05518 7.7367V14.1292C9.05518 14.3203 9.34184 14.3203 9.34184 14.1292V7.7367C9.34184 7.65707 9.27813 7.59018 9.19532 7.59337Z" fill="white"/>
<path fill-rule="evenodd" clip-rule="evenodd" d="M7.54554 10.5077C7.57421 10.5077 7.60288 10.514 7.62517 10.53C7.64747 10.5459 7.86406 10.6956 8.12842 10.9218C8.39279 11.1511 8.68896 11.4314 8.81 11.7308C8.90555 11.9538 8.89281 12.2436 8.87689 12.4952C8.85778 12.7437 8.81955 12.9443 8.81955 12.9443C8.80044 13.0463 8.68259 13.094 8.59664 13.0367C8.59664 13.0367 8.36094 12.8743 8.09657 12.6449C7.83221 12.4188 7.53599 12.1353 7.41177 11.8391C7.3194 11.613 7.32895 11.3231 7.34807 11.0747C7.36718 10.8262 7.4054 10.6224 7.4054 10.6224C7.41495 10.5555 7.47547 10.5045 7.54554 10.5077Z" fill="white"/>
<path fill-rule="evenodd" clip-rule="evenodd" d="M7.54554 8.23682C7.57421 8.23682 7.60288 8.24644 7.62517 8.2623C7.64747 8.27821 7.86406 8.42473 8.12842 8.65402C8.39279 8.88017 8.68896 9.16044 8.81 9.45985C8.90555 9.68599 8.89281 9.97584 8.87689 10.2243C8.85778 10.4727 8.81955 10.6734 8.81955 10.6734C8.80044 10.7753 8.68259 10.8263 8.59664 10.7658C8.59664 10.7658 8.36094 10.6033 8.09657 10.374C7.83221 10.1478 7.53599 9.86754 7.41177 9.56815C7.3194 9.342 7.32895 9.05217 7.34807 8.80373C7.36718 8.55532 7.4054 8.35148 7.4054 8.35148C7.41495 8.28459 7.47547 8.23682 7.54554 8.23682Z" fill="white"/>
<path fill-rule="evenodd" clip-rule="evenodd" d="M7.54554 5.96559C7.57421 5.96559 7.60288 5.97507 7.62517 5.99107C7.64747 6.00699 7.86406 6.15351 8.12842 6.38285C8.39279 6.60898 8.68896 6.89246 8.81 7.18868C8.90555 7.41484 8.89281 7.70466 8.87689 7.9531C8.85778 8.20154 8.81955 8.4054 8.81955 8.4054C8.80044 8.50732 8.68259 8.5551 8.59664 8.49459C8.59664 8.49459 8.36094 8.33214 8.09657 8.10281C7.83221 7.87666 7.53599 7.59639 7.41177 7.29698C7.3194 7.07402 7.32895 6.78099 7.34807 6.53255C7.36718 6.28411 7.4054 6.08343 7.4054 6.08343C7.41495 6.01335 7.47547 5.96558 7.54554 5.96558V5.96559Z" fill="white"/>
<path fill-rule="evenodd" clip-rule="evenodd" d="M9.31324 4.22021C9.27502 4.22336 9.23998 4.24252 9.2145 4.27116C9.2145 4.27116 9.08073 4.42723 8.94058 4.63427C8.79725 4.83811 8.64437 5.08654 8.61251 5.32861C8.57115 5.64713 8.68577 6.03891 8.80044 6.36697C8.91829 6.69823 9.04251 6.9594 9.04251 6.9594C9.0871 7.05178 9.21132 7.06769 9.27821 6.98805C9.27821 6.98805 9.41198 6.83199 9.55213 6.62495C9.69546 6.42111 9.84834 6.17268 9.8802 5.93379C9.9216 5.61208 9.80694 5.2203 9.69227 4.89225C9.57442 4.56417 9.4502 4.30299 9.4502 4.30299C9.42472 4.24885 9.37057 4.217 9.31324 4.22019V4.22021Z" fill="white"/>
<path fill-rule="evenodd" clip-rule="evenodd" d="M10.9473 5.96559C10.9186 5.96559 10.8899 5.97507 10.8676 5.99107C10.8453 6.00699 10.6287 6.15351 10.3644 6.38285C10.1 6.60898 9.8038 6.89246 9.68276 7.18868C9.5904 7.41484 9.59995 7.70466 9.61906 7.9531C9.63499 8.20154 9.67321 8.4054 9.67321 8.4054C9.69232 8.50732 9.81017 8.5551 9.89617 8.49459C9.89617 8.49459 10.1319 8.33214 10.3962 8.10599C10.6606 7.87666 10.9568 7.59639 11.081 7.29698C11.1734 7.07402 11.1638 6.78418 11.1447 6.53255C11.1256 6.28411 11.0906 6.08343 11.0906 6.08343C11.0779 6.01335 11.0173 5.96558 10.9473 5.96558V5.96559Z" fill="white"/>
<path fill-rule="evenodd" clip-rule="evenodd" d="M10.9473 10.5077C10.9186 10.5077 10.8899 10.514 10.8676 10.53C10.8453 10.5459 10.6287 10.6956 10.3644 10.9218C10.1 11.1511 9.8038 11.4314 9.68276 11.7308C9.5904 11.9538 9.59995 12.2436 9.61906 12.4952C9.63499 12.7437 9.67321 12.9443 9.67321 12.9443C9.69232 13.0463 9.81017 13.094 9.89617 13.0367C9.89617 13.0367 10.1319 12.8743 10.3962 12.6449C10.6606 12.4188 10.9568 12.1353 11.081 11.8391C11.1734 11.613 11.1638 11.3231 11.1447 11.0747C11.1256 10.8262 11.0906 10.6224 11.0906 10.6224C11.0779 10.5555 11.0173 10.5045 10.9473 10.5077Z" fill="white"/>
<path fill-rule="evenodd" clip-rule="evenodd" d="M10.9473 8.23682C10.9186 8.23682 10.8899 8.24644 10.8676 8.2623C10.8453 8.27821 10.6287 8.42473 10.3644 8.65402C10.1 8.88017 9.8038 9.16044 9.68276 9.45985C9.5904 9.68599 9.59995 9.97584 9.61906 10.2243C9.63499 10.4727 9.67321 10.6734 9.67321 10.6734C9.69232 10.7753 9.81017 10.8263 9.89617 10.7658C9.89617 10.7658 10.1319 10.6033 10.3962 10.374C10.6606 10.1478 10.9568 9.86754 11.081 9.56815C11.1734 9.342 11.1638 9.05217 11.1447 8.80373C11.1256 8.55532 11.0906 8.35148 11.0906 8.35148C11.0779 8.28459 11.0173 8.23682 10.9473 8.23682Z" fill="white"/>
</svg>
