<svg width="48" height="48" viewBox="0 0 48 48" fill="none" xmlns="http://www.w3.org/2000/svg">
<rect width="48" height="48" rx="5" fill="#F7F7F7"/>
<path d="M24.5001 18.853C23.4835 18.853 22.4891 19.1367 21.6428 19.669C20.7963 20.2013 20.1354 20.9587 19.7448 21.8462C19.3541 22.7339 19.2518 23.7111 19.451 24.654C19.6503 25.5968 20.1419 26.4617 20.8624 27.1399C21.5828 27.8179 22.4998 28.2789 23.4971 28.4656C24.4943 28.6523 25.528 28.5565 26.4678 28.1902C27.4076 27.8238 28.2121 27.2028 28.7787 26.4048C29.3453 25.6066 29.6483 24.6673 29.6483 23.7058C29.6483 22.4162 29.104 21.1811 28.1377 20.2717C27.1717 19.3626 25.8631 18.853 24.5001 18.853ZM24.5001 27.1266C23.778 27.1266 23.0728 26.9251 22.4735 26.5482C21.8744 26.1714 21.4085 25.6366 21.1338 25.0124C20.8591 24.3882 20.7874 23.7019 20.9273 23.0399C21.0672 22.3778 21.4129 21.7685 21.9218 21.2895C22.4307 20.8105 23.0801 20.4835 23.7881 20.351C24.4961 20.2184 25.2299 20.2865 25.8964 20.5463C26.5629 20.8062 27.1313 21.2457 27.5307 21.8082C27.9299 22.3706 28.1425 23.031 28.1425 23.7058C28.1425 24.6105 27.7607 25.4799 27.0784 26.1221C26.3958 26.7645 25.4685 27.1266 24.5001 27.1266Z" fill="#3E4826" stroke="white" stroke-width="0.25"/>
<path d="M11.0982 24.2148L11.1839 24.1238L11.0982 24.2148C11.2399 24.3482 11.4306 24.4219 11.6279 24.4219H14.3186C14.5044 26.7183 15.5575 28.8763 17.2875 30.5045C19.0187 32.1339 21.311 33.123 23.7471 33.2962V35.8208C23.7471 36.0132 23.8284 36.1961 23.9703 36.3297C24.112 36.4631 24.3027 36.5368 24.5 36.5368C24.6973 36.5368 24.888 36.4631 25.0297 36.3297C25.1716 36.1961 25.2529 36.0132 25.2529 35.8208V33.2962C27.689 33.123 29.9813 32.1339 31.7125 30.5045C33.4425 28.8763 34.4956 26.7183 34.6814 24.4219H37.3721C37.5694 24.4219 37.7601 24.3482 37.9018 24.2148C38.0437 24.0812 38.125 23.8983 38.125 23.7059C38.125 23.5135 38.0437 23.3306 37.9018 23.197C37.7601 23.0636 37.5694 22.9899 37.3721 22.9899H34.6814C34.4956 20.6935 33.4425 18.5354 31.7125 16.9072C29.9813 15.2779 27.689 14.2887 25.2529 14.1156V11.591C25.2529 11.3986 25.1716 11.2157 25.0297 11.0821C24.888 10.9487 24.6973 10.875 24.5 10.875C24.3027 10.875 24.112 10.9487 23.9703 11.0821C23.8284 11.2157 23.7471 11.3986 23.7471 11.591V14.1156C21.311 14.2887 19.0187 15.2779 17.2875 16.9072C15.5575 18.5354 14.5044 20.6935 14.3186 22.9899H11.6279C11.4306 22.9899 11.2399 23.0636 11.0982 23.197C10.9563 23.3306 10.875 23.5135 10.875 23.7059C10.875 23.8983 10.9563 24.0812 11.0982 24.2148ZM24.4999 31.8899C22.7769 31.8899 21.0932 31.409 19.6618 30.5088C18.2303 29.6086 17.1158 28.3299 16.4581 26.8353C15.8003 25.3408 15.6284 23.6967 15.9636 22.1107C16.2988 20.5246 17.1264 19.0666 18.3431 17.9215C19.5598 16.7763 21.111 15.9957 22.8007 15.6793C24.4904 15.363 26.2418 15.5254 27.8331 16.1458C29.4243 16.7661 30.7831 17.8162 31.7386 19.162C32.694 20.5077 33.2033 22.0889 33.2034 23.7057C33.2009 25.8731 32.2851 27.9527 30.6542 29.4877C29.023 31.0229 26.8098 31.8876 24.4999 31.8899Z" fill="#3E4826" stroke="white" stroke-width="0.25"/>
</svg>
